<svg width="71" height="61" viewBox="0 0 71 61" fill="none" xmlns="http://www.w3.org/2000/svg">
<path d="M52.0139 5.57931L49.917 3.52269C49.2688 2.89809 49.1697 2.5934 48.2928 3.09613C47.4769 3.54554 46.8135 4.07874 46.1348 4.7719C45.4638 5.46505 45.7536 5.64025 46.173 6.37911C46.6762 7.25507 47.1414 8.07011 47.637 8.93084C47.1719 9.55544 46.7906 10.2181 46.5008 10.9113C45.5248 10.9113 44.5411 10.9189 43.5651 10.9265C42.6653 10.9341 42.3756 10.797 42.1163 11.7644C41.8723 12.6708 41.7655 13.5087 41.7808 14.4685C41.796 15.4435 42.1392 15.3597 42.9551 15.5882C43.9159 15.8472 44.8309 16.0909 45.7917 16.3575C45.8984 17.104 46.1043 17.8505 46.3865 18.5741C45.7002 19.2596 45.0063 19.968 44.32 20.6536C43.7024 21.2934 43.3897 21.4001 43.893 22.276C44.3505 23.0834 44.869 23.7537 45.5706 24.4164C46.2645 25.0867 46.4398 24.8049 47.1795 24.386L49.7187 22.9311C50.344 23.3881 51.015 23.7766 51.7165 24.0737L51.7318 26.9986C51.7318 27.8365 51.5716 28.1488 52.5019 28.4154C53.4398 28.682 54.2786 28.8039 55.2089 28.7963C56.2078 28.7963 56.1544 28.4764 56.3908 27.6156L57.1686 24.7897C57.9235 24.6754 58.6708 24.485 59.3799 24.1955L61.454 26.2522C62.064 26.8539 62.1631 27.1814 63.0096 26.7016C63.856 26.2369 64.527 25.7266 65.1904 25.0639C65.8995 24.3479 65.625 24.1651 65.1904 23.3957L63.7416 20.8516C64.2143 20.2346 64.5956 19.5567 64.9006 18.8636L67.8211 18.8483C68.6599 18.8483 68.9725 19.0083 69.2394 18.079C69.4987 17.1497 69.6207 16.3118 69.613 15.3825C69.6054 14.3695 69.2928 14.4304 68.4159 14.1943L65.6098 13.4249C65.4878 12.6708 65.3048 11.9167 65.0074 11.1931L67.0662 9.12888C67.6686 8.51952 68.0041 8.42049 67.5237 7.58261C67.0509 6.72949 66.5477 6.05919 65.8766 5.40412C65.1522 4.69572 64.9845 4.96232 64.2067 5.40412L61.6675 6.85137C61.0422 6.38672 60.3712 6.00587 59.6773 5.7088L59.6544 2.79145C59.6544 1.88501 59.7841 1.59556 58.808 1.33658C57.9159 1.09283 57.0695 0.98619 56.1011 1.00142C55.1326 1.02428 55.2089 1.35943 54.9801 2.18208L54.21 4.99279C53.4627 5.10705 52.7154 5.30509 51.9987 5.58693M52.5477 10.8199C54.7971 9.0908 58.0302 9.50974 59.7612 11.772C61.4845 14.0115 61.0651 17.2487 58.808 18.9778C56.5509 20.7069 53.3178 20.2803 51.5945 18.0333C49.856 15.7786 50.283 12.549 52.5401 10.8199M22.6719 27.9279C17.9899 28.7963 14.9017 33.298 15.771 37.9825C16.6479 42.6594 21.1468 45.7443 25.8287 44.8684C30.5106 44 33.5989 39.4983 32.7296 34.8138C31.8527 30.1369 27.3461 27.052 22.6642 27.9279M25.8211 19.7091C27.1174 19.8309 28.3756 20.0975 29.5804 20.5012L32.8745 16.8755C33.8276 15.8167 33.9725 15.2607 35.4289 15.9691C36.8854 16.6774 38.0597 17.4696 39.2263 18.5208C40.4692 19.6557 40.0499 19.9757 39.3712 21.3239L37.1828 25.7037C37.9987 26.6787 38.7078 27.7527 39.2873 28.9181L44.1828 28.6896C45.6773 28.6211 46.1501 28.3621 46.6838 29.9617C47.1795 31.447 47.4235 32.8333 47.4845 34.4558C47.5455 36.0706 46.9812 35.9716 45.6239 36.421L40.9801 37.952C40.8581 39.247 40.5836 40.519 40.1795 41.7225L43.7939 45.0207C44.9148 46.0338 45.4257 46.1785 44.6708 47.6867C43.9692 49.0883 43.1533 50.2461 42.0553 51.4267C40.9496 52.615 40.6141 52.1427 39.3407 51.5105L34.979 49.3168C33.9954 50.1318 32.9126 50.8478 31.7383 51.4191L31.9671 56.3017C32.0357 57.7946 32.295 58.2669 30.6936 58.8001C29.2067 59.2952 27.8113 59.5389 26.1947 59.5999C24.5782 59.6608 24.6773 59.0895 24.2274 57.7413L22.6947 53.1025C21.3984 52.9806 20.1403 52.7064 18.9278 52.3027L15.6185 55.9284C14.6043 57.0405 14.4594 57.5509 12.9496 56.7968C11.5542 56.096 10.3952 55.2962 9.20563 54.1765C8.01608 53.072 8.48885 52.7369 9.12175 51.4724L11.3331 47.0926C10.5172 46.1176 9.80802 45.036 9.2285 43.8705L4.32545 44.1143C2.90715 44.1828 2.41151 44.4799 1.88537 42.9489C1.3516 41.4102 1.07709 40.0315 1.00846 38.47C0.924581 36.7866 1.45835 36.8628 2.88428 36.3829C4.43983 35.8573 5.99539 35.3394 7.55094 34.829C7.68057 33.5417 7.93983 32.2849 8.3516 31.0814C7.1163 29.9617 5.94964 28.9029 4.70672 27.7832C3.65443 26.8234 3.09778 26.6863 3.80693 25.2238C4.51608 23.769 5.30149 22.5959 6.3614 21.4381C7.49757 20.1966 7.81783 20.6155 9.15987 21.2934C10.6316 22.0247 12.0956 22.7483 13.5597 23.4795V23.4948C14.5357 22.6797 15.6109 21.9713 16.7775 21.3924C16.6936 19.7243 16.625 18.1475 16.5335 16.4794C16.4649 15.0626 16.1675 14.5675 17.7002 14.0419C19.2405 13.5087 20.6283 13.2345 22.1838 13.166C23.869 13.0822 23.7928 13.6154 24.2732 15.0321L25.8287 19.6938L25.8211 19.7091Z" stroke="white" stroke-width="2" stroke-miterlimit="10"/>
</svg>
