<svg width="65" height="57" viewBox="0 0 65 57" fill="none" xmlns="http://www.w3.org/2000/svg">
<path fill-rule="evenodd" clip-rule="evenodd" d="M63.8156 11.1822L57.3475 17.5534L63.8156 26.1602C64.0425 26.4955 64.156 26.8309 64.0425 27.1662C63.9291 27.5015 63.7021 27.8369 63.3617 27.9486L39.6454 37.3379C39.5319 37.4496 39.305 37.4496 39.1915 37.4496C38.8511 37.4496 38.5106 37.3379 38.2837 37.0025L32.0426 28.8429L25.8014 37.0025C25.5745 37.3379 25.234 37.4496 24.8936 37.4496C24.7607 37.4496 24.6667 37.4113 24.5888 37.3795C24.5337 37.357 24.4867 37.3379 24.4397 37.3379L0.723404 27.9486C0.382979 27.7251 0.0425532 27.5015 0.0425532 27.1662C0.0425532 26.8309 0.0425532 26.4955 0.269504 26.1602L6.85106 17.5534L0.382979 11.294C0.0425532 11.0704 -0.070922 10.6233 0.0425532 10.288C0.156028 9.84086 0.382979 9.6173 0.723404 9.39375L24.4397 0.116305C24.8936 -0.107247 25.3475 0.004529 25.6879 0.339858L32.0426 6.59934L38.3972 0.339858C38.7376 0.004529 39.1915 0.004529 39.6454 0.116305L63.4752 9.39375C63.8156 9.50553 64.0425 9.84086 64.156 10.1762C64.156 10.5115 64.0425 10.9586 63.8156 11.1822ZM60.8652 10.9586L39.4184 2.46361L34.0851 7.7171L55.5319 16.2121L60.8652 10.9586ZM11.3901 17.4417L32.0426 25.6013L52.695 17.4417L32.0426 9.28197L11.3901 17.4417ZM30 7.7171L24.6667 2.46361L3.21986 10.8468L8.55319 16.2121L30 7.7171ZM2.99291 26.3838L24.5532 34.8788L30.2269 27.3898L8.66667 18.8947L2.99291 26.3838ZM33.8582 27.3898L39.5319 34.8788L61.0922 26.3838L55.4184 18.8947L33.8582 27.3898Z" fill="white"/>
<path d="M54.624 38.5675C54.624 37.8968 55.0779 37.4497 55.7588 37.4497C56.4396 37.4497 56.8935 37.8968 56.8935 38.5675V45.6094C56.8935 46.0565 56.6666 46.3918 56.2127 46.6154L32.4964 56.0046C32.3829 56.1164 32.2694 56.1164 32.0425 56.1164C31.9095 56.1164 31.8155 56.078 31.7376 56.0462C31.6826 56.0238 31.6356 56.0046 31.5886 56.0046L7.87226 46.6154C7.41836 46.5036 7.19141 46.0565 7.19141 45.6094V38.5675C7.19141 37.8968 7.64531 37.4497 8.32616 37.4497C9.00701 37.4497 9.46091 37.8968 9.46091 38.5675V44.827L32.0425 53.7691L54.624 44.827V38.5675Z" fill="white"/>
</svg>
