<svg width="56" height="56" viewBox="0 0 56 56" fill="none" xmlns="http://www.w3.org/2000/svg">
<path d="M21.0506 28.7422L12.6169 36.906C12.4145 37.1084 12.1446 37.1759 11.8747 37.1759C11.3349 37.1759 10.8627 36.7711 10.8627 36.1639V36.0964L11.0651 33.9373H10.5253H3.91325H2.6988H1.01205C0.472289 33.9373 0 33.4651 0 32.9253V23.1422C0 22.6024 0.472289 22.1301 1.01205 22.1301H1.3494H2.6988H3.84578H6.40964H10.4578H10.9976L10.7952 19.9711V19.9036C10.7952 19.2964 11.3349 18.8916 11.8072 18.8916C12.0771 18.8916 12.347 18.959 12.5494 19.1614L20.9831 27.3253C21.1855 27.5277 21.3205 27.7976 21.3205 28.0675C21.3205 28.2699 21.253 28.5398 21.0506 28.7422ZM19.8361 28L12.2795 20.7133L12.4145 22.4V22.4675C12.4145 23.0072 11.9422 23.4795 11.4024 23.4795H10.5253H6.47711H3.91325H2.6988H1.3494V32.5205H2.6988H3.84578H10.4578H11.3349C11.8747 32.5205 12.347 32.9928 12.347 33.5325V33.6L12.212 35.2867L19.8361 28ZM56 23.1422V32.8578C56 33.3976 55.5277 33.8699 54.9879 33.8699H53.3012H52.1542H45.5422H45.0024L45.2048 36.0289V36.0964C45.2048 36.7036 44.6651 37.1084 44.1928 37.1084C43.9229 37.1084 43.653 37.041 43.4506 36.8386L35.0843 28.7422C34.8819 28.5398 34.747 28.2699 34.747 28C34.747 27.7301 34.8819 27.4602 35.0843 27.2578L43.5181 19.094C43.7205 18.8916 43.9904 18.8241 44.2602 18.8241C44.8 18.8241 45.2723 19.2289 45.2723 19.8361V19.9036L45.0699 22.0627H45.6096H49.6578H52.2217H53.3012H54.6506H54.9205C55.5277 22.1301 56 22.6024 56 23.1422ZM53.3012 32.5205H54.6506V23.4795H53.3012H52.1542H49.5904H45.5422H44.6651C44.1253 23.4795 43.653 23.0072 43.653 22.4675V22.4L43.788 20.7133L36.1639 28L43.7205 35.2867L43.5855 33.6V33.5325C43.5855 32.9928 44.0578 32.5205 44.5976 32.5205H45.4747H52.0867H53.3012V32.5205ZM36.906 43.3831C37.1084 43.5855 37.1759 43.8554 37.1759 44.1253C37.1759 44.6651 36.7711 45.1373 36.1639 45.1373H36.0964L33.9373 44.9349V45.4747V52.0867V53.3012V54.9879C33.9373 55.5277 33.4651 56 32.9253 56H23.1422C22.6024 56 22.1301 55.5277 22.1301 54.9879V54.6506V53.3012V52.1542V49.5904V45.5422V45.0024L19.9711 45.2048H19.9036C19.2964 45.2048 18.8916 44.6651 18.8916 44.1928C18.8916 43.9229 18.959 43.653 19.1614 43.4506L27.3253 35.0169C27.5277 34.8145 27.7976 34.6795 28.0675 34.6795C28.3373 34.6795 28.6072 34.8145 28.8096 35.0169L36.906 43.3831ZM23.4795 44.5976V45.4747V49.5229V52.0867V53.3012V54.6506H32.5205V53.3012V52.1542V45.5422V44.6651C32.5205 44.1253 32.9928 43.653 33.5325 43.653H33.6L35.2867 43.788L28 36.1639L20.7133 43.7205L22.4 43.5855H22.4675C23.0072 43.5855 23.4795 44.0578 23.4795 44.5976ZM19.1614 12.6169C18.959 12.4145 18.8916 12.1446 18.8916 11.8747C18.8916 11.3349 19.2964 10.8627 19.9036 10.8627H19.9711L22.1301 11.0651V10.5253V6.47711V3.91325V2.6988V1.3494V1.01205C22.1301 0.472289 22.6024 0 23.1422 0H32.8578C33.3976 0 33.8699 0.472289 33.8699 1.01205V2.6988V3.84578V10.4578V10.9976L36.0289 10.7952H36.0964C36.7036 10.7952 37.1084 11.3349 37.1084 11.8072C37.1084 12.0771 37.041 12.347 36.8386 12.5494L28.7422 21.0506C28.5398 21.253 28.2699 21.388 28 21.388C27.7301 21.388 27.4602 21.253 27.2578 21.0506L19.1614 12.6169ZM32.5205 11.4024V10.5253V3.91325V2.6988V1.3494H23.4795V2.6988V3.84578V6.40964V10.4578V11.3349C23.4795 11.8747 23.0072 12.347 22.4675 12.347H22.4L20.7133 12.212L28 19.7687L35.2867 12.212L33.6 12.347H33.5325C32.9928 12.4145 32.5205 12.0096 32.5205 11.4024ZM22.7373 28C22.7373 30.9012 25.0988 33.2626 28 33.2626C30.9012 33.2626 33.2626 30.9012 33.2626 28C33.2626 25.0988 30.9012 22.7373 28 22.7373C25.0988 22.7373 22.7373 25.0988 22.7373 28Z" fill="white"/>
</svg>
