<svg width="67" height="69" viewBox="0 0 67 69" fill="none" xmlns="http://www.w3.org/2000/svg">
<path d="M50.0154 16.4918H50.9538C50.9538 25.5907 43.6345 32.9835 34.626 32.9835C25.6176 32.9835 18.2983 25.5907 18.2983 16.4918C18.2983 7.39285 25.6176 0 34.626 0C43.6345 0 50.9538 7.39285 50.9538 16.4918H50.0154H49.077C49.077 8.43544 42.6022 1.99038 34.626 1.8956C26.6499 1.8956 20.2689 8.43544 20.1751 16.4918C20.1751 24.5481 26.6499 30.9931 34.626 31.0879C42.6022 31.0879 48.9832 24.5481 49.077 16.4918H50.0154ZM65.1233 36.1113C65.1233 40.2816 61.7451 43.6937 57.6162 43.6937C53.4874 43.6937 50.1092 40.2816 50.1092 36.1113C50.1092 31.9409 53.4874 28.5289 57.6162 28.5289C61.8389 28.5289 65.1233 31.9409 65.1233 36.1113H66.0616H67C67 30.8984 62.7773 26.6333 57.6162 26.6333C52.4552 26.6333 48.2325 30.8984 48.2325 36.1113C48.2325 41.3242 52.4552 45.5893 57.6162 45.5893C62.7773 45.5893 67 41.3242 67 36.1113H66.0616H65.1233ZM45.7927 47.5797C45.7927 52.603 41.7577 56.5838 36.8782 56.5838C31.9048 56.5838 27.9636 52.5083 27.9636 47.5797C27.9636 42.5563 31.9986 38.5756 36.8782 38.5756C41.7577 38.4808 45.7927 42.5563 45.7927 47.5797H46.7311H47.6695C47.6695 41.5138 42.7899 36.68 36.8782 36.68C30.8725 36.68 26.0868 41.6085 26.0868 47.5797C26.0868 53.6456 30.9664 58.4794 36.8782 58.4794C42.8838 58.4794 47.6695 53.5508 47.6695 47.5797H46.7311H45.7927ZM21.7703 39.0495C21.7703 44.5467 17.3599 49.0014 11.8235 49.0962C6.38095 49.0014 1.97059 44.5467 1.97059 39.0495C1.97059 33.5522 6.38095 29.0975 11.9174 29.0028C17.3599 29.0028 21.7703 33.5522 21.7703 39.0495H22.7087H23.6471C23.6471 32.5096 18.3922 27.1072 11.8235 27.1072C5.34874 27.1072 0 32.4149 0 39.0495C0 45.5893 5.2549 50.9918 11.8235 50.9918C18.2983 50.9918 23.6471 45.6841 23.6471 39.0495H22.7087H21.7703ZM24.8669 61.4176C24.8669 64.5453 22.3333 67.1044 19.2367 67.1044C16.1401 67.1044 13.6064 64.5453 13.6064 61.4176C13.6064 58.2898 16.1401 55.7308 19.2367 55.7308C22.3333 55.7308 24.8669 58.2898 24.8669 61.4176H25.8053H26.7437C26.7437 57.2473 23.3655 53.8352 19.2367 53.8352C15.1078 53.8352 11.7297 57.2473 11.7297 61.4176C11.7297 65.5879 15.1078 69 19.2367 69C23.3655 69 26.7437 65.5879 26.7437 61.4176H25.8053H24.8669ZM62.4958 56.8681C62.4958 59.522 60.3375 61.7019 57.7101 61.7019C55.0826 61.7019 52.9244 59.522 52.9244 56.8681C52.9244 54.2143 55.0826 52.0343 57.7101 52.0343C60.3375 52.0343 62.4958 54.2143 62.4958 56.8681H63.4342H64.3725C64.3725 53.1717 61.3697 50.1387 57.7101 50.1387C54.0504 50.1387 51.0476 53.1717 51.0476 56.8681C51.0476 60.5646 54.0504 63.5975 57.7101 63.5975C61.3697 63.5975 64.3725 60.5646 64.3725 56.8681H63.4342H62.4958Z" fill="white"/>
</svg>
